# Blender 3.5.1
# www.blender.org
mtllib solar.mtl
o Plane.002
v -2.657372 -0.414102 1.263693
v -2.625412 -0.393461 1.202540
v -2.648901 -0.412060 1.257644
v -2.641309 -0.410289 1.252397
v -2.634250 -0.406987 1.242614
v -2.630000 -0.402812 1.230245
v -2.627874 -0.398394 1.217155
v -2.899692 -0.393461 1.202540
v -2.867732 -0.414102 1.263693
v -2.897230 -0.398394 1.217155
v -2.895104 -0.402812 1.230245
v -2.890854 -0.406987 1.242614
v -2.883795 -0.410289 1.252397
v -2.876203 -0.412060 1.257644
v -2.625412 -0.257607 0.800035
v -2.657372 -0.236966 0.738882
v -2.627874 -0.252674 0.785420
v -2.630000 -0.248256 0.772330
v -2.634250 -0.244081 0.759961
v -2.641309 -0.240778 0.750177
v -2.648901 -0.239008 0.744930
v -2.867732 -0.236966 0.738882
v -2.899692 -0.257607 0.800035
v -2.876203 -0.239008 0.744930
v -2.883795 -0.240778 0.750177
v -2.890854 -0.244081 0.759961
v -2.895104 -0.248256 0.772330
v -2.897230 -0.252674 0.785420
v -2.657372 -0.256986 0.732125
v -2.625412 -0.277626 0.793278
v -2.648901 -0.259027 0.738173
v -2.641309 -0.260798 0.743420
v -2.634250 -0.264100 0.753204
v -2.630000 -0.268275 0.765573
v -2.627874 -0.272693 0.778663
v -2.625412 -0.413481 1.195783
v -2.657372 -0.434122 1.256936
v -2.627874 -0.418414 1.210397
v -2.630000 -0.422832 1.223487
v -2.634250 -0.427007 1.235856
v -2.641309 -0.430309 1.245640
v -2.648901 -0.432080 1.250887
v -2.867732 -0.434122 1.256936
v -2.899692 -0.413481 1.195783
v -2.876203 -0.432080 1.250887
v -2.883795 -0.430309 1.245640
v -2.890854 -0.427007 1.235856
v -2.895104 -0.422832 1.223487
v -2.897230 -0.418414 1.210397
v -2.899692 -0.277626 0.793278
v -2.867732 -0.256986 0.732125
v -2.897230 -0.272693 0.778663
v -2.895104 -0.268275 0.765573
v -2.890854 -0.264100 0.753204
v -2.883795 -0.260798 0.743420
v -2.876203 -0.259027 0.738173
vn -0.3425 -0.3005 0.8902
vn 0.3425 -0.3005 0.8902
vn 0.3425 0.3005 -0.8902
vn -0.3425 0.3005 -0.8902
vn -0.0000 0.9475 0.3198
vn -0.0000 -0.9475 -0.3198
vn -0.9970 0.0248 -0.0735
vn -0.9970 -0.0248 0.0735
vn -0.5956 0.2569 -0.7611
vn -0.7302 0.2185 -0.6474
vn -0.9039 0.1368 -0.4053
vn -0.9737 0.0729 -0.2159
vn -0.9879 0.0495 -0.1467
vn -0.5956 -0.2569 0.7611
vn -0.7302 -0.2185 0.6474
vn -0.9039 -0.1368 0.4053
vn -0.9737 -0.0729 0.2159
vn -0.9879 -0.0495 0.1467
vn 0.5956 -0.2569 0.7611
vn 0.7302 -0.2185 0.6474
vn 0.9039 -0.1368 0.4053
vn 0.9737 -0.0729 0.2159
vn 0.9879 -0.0495 0.1467
vn 0.9970 -0.0248 0.0735
vn 0.5956 0.2569 -0.7611
vn 0.7302 0.2185 -0.6474
vn 0.9039 0.1368 -0.4053
vn 0.9737 0.0729 -0.2159
vn 0.9879 0.0495 -0.1467
vn 0.9970 0.0248 -0.0735
vt 0.116524 0.000000
vt 0.000000 0.116524
vt 0.085637 0.003842
vt 0.057958 0.007174
vt 0.010740 0.013388
vt 0.005576 0.063734
vt 0.002992 0.088676
vt 1.000000 0.116524
vt 0.883476 0.000000
vt 0.997008 0.088676
vt 0.994424 0.063734
vt 0.989260 0.013388
vt 0.942042 0.007174
vt 0.914363 0.003842
vt 0.000000 0.883476
vt 0.116524 1.000000
vt 0.002992 0.911324
vt 0.005576 0.936266
vt 0.010740 0.986612
vt 0.057958 0.992826
vt 0.085637 0.996158
vt 0.883476 1.000000
vt 1.000000 0.883476
vt 0.914363 0.996158
vt 0.942042 0.992826
vt 0.989260 0.986612
vt 0.994424 0.936266
vt 0.997008 0.911324
vt 0.116524 1.000000
vt 0.000000 0.883476
vt 0.085637 0.996158
vt 0.057958 0.992826
vt 0.010740 0.986612
vt 0.005576 0.936266
vt 0.002992 0.911324
vt 0.000000 0.116524
vt 0.116524 0.000000
vt 0.002992 0.088676
vt 0.005576 0.063734
vt 0.010740 0.013388
vt 0.057958 0.007174
vt 0.085637 0.003842
vt 0.883476 0.000000
vt 1.000000 0.116524
vt 0.914363 0.003842
vt 0.942042 0.007174
vt 0.989260 0.013388
vt 0.994424 0.063734
vt 0.997008 0.088676
vt 1.000000 0.883476
vt 0.883476 1.000000
vt 0.997008 0.911324
vt 0.994424 0.936266
vt 0.989260 0.986612
vt 0.942042 0.992826
vt 0.914363 0.996158
s 1
usemtl None
f 9/9/1 37/37/2 1/1/2
f 16/16/3 51/51/4 22/22/4
f 21/21/5 26/26/5 10/10/5
f 49/49/6 54/54/6 31/31/6
f 23/23/7 44/44/8 8/8/8
f 51/51/4 24/24/9 22/22/4
f 56/56/9 25/25/10 24/24/9
f 55/55/10 26/26/11 25/25/10
f 54/54/11 27/27/12 26/26/11
f 53/53/12 28/28/13 27/27/12
f 52/52/13 23/23/7 28/28/13
f 9/9/1 45/45/14 43/43/1
f 14/14/14 46/46/15 45/45/14
f 13/13/15 47/47/16 46/46/15
f 12/12/16 48/48/17 47/47/16
f 11/11/17 49/49/18 48/48/17
f 10/10/18 44/44/8 49/49/18
f 37/37/2 3/3/19 1/1/2
f 42/42/19 4/4/20 3/3/19
f 41/41/20 5/5/21 4/4/20
f 40/40/21 6/6/22 5/5/21
f 39/39/22 7/7/23 6/6/22
f 38/38/23 2/2/24 7/7/23
f 16/16/3 31/31/25 29/29/3
f 21/21/25 32/32/26 31/31/25
f 20/20/26 33/33/27 32/32/26
f 19/19/27 34/34/28 33/33/27
f 18/18/28 35/35/29 34/34/28
f 17/17/29 30/30/30 35/35/29
f 2/2/24 30/30/30 15/15/30
f 9/9/1 43/43/1 37/37/2
f 16/16/3 29/29/3 51/51/4
f 9/9/5 1/1/5 3/3/5
f 3/3/5 4/4/5 5/5/5
f 5/5/5 6/6/5 7/7/5
f 7/7/5 2/2/5 15/15/5
f 17/17/5 18/18/5 19/19/5
f 7/7/5 15/15/5 17/17/5
f 3/3/5 5/5/5 7/7/5
f 14/14/5 9/9/5 3/3/5
f 12/12/5 13/13/5 14/14/5
f 10/10/5 11/11/5 12/12/5
f 23/23/5 8/8/5 10/10/5
f 26/26/5 27/27/5 28/28/5
f 28/28/5 23/23/5 10/10/5
f 10/10/5 12/12/5 14/14/5
f 14/14/5 3/3/5 7/7/5
f 7/7/5 17/17/5 19/19/5
f 19/19/5 20/20/5 21/21/5
f 21/21/5 16/16/5 22/22/5
f 24/24/5 25/25/5 26/26/5
f 21/21/5 22/22/5 24/24/5
f 7/7/5 19/19/5 21/21/5
f 10/10/5 14/14/5 7/7/5
f 26/26/5 28/28/5 10/10/5
f 21/21/5 24/24/5 26/26/5
f 10/10/5 7/7/5 21/21/5
f 30/30/6 36/36/6 38/38/6
f 38/38/6 39/39/6 40/40/6
f 40/40/6 41/41/6 42/42/6
f 42/42/6 37/37/6 43/43/6
f 45/45/6 46/46/6 47/47/6
f 42/42/6 43/43/6 45/45/6
f 38/38/6 40/40/6 42/42/6
f 35/35/6 30/30/6 38/38/6
f 33/33/6 34/34/6 35/35/6
f 31/31/6 32/32/6 33/33/6
f 51/51/6 29/29/6 31/31/6
f 54/54/6 55/55/6 56/56/6
f 56/56/6 51/51/6 31/31/6
f 31/31/6 33/33/6 35/35/6
f 35/35/6 38/38/6 42/42/6
f 42/42/6 45/45/6 47/47/6
f 47/47/6 48/48/6 49/49/6
f 49/49/6 44/44/6 50/50/6
f 52/52/6 53/53/6 54/54/6
f 49/49/6 50/50/6 52/52/6
f 42/42/6 47/47/6 49/49/6
f 31/31/6 35/35/6 42/42/6
f 54/54/6 56/56/6 31/31/6
f 49/49/6 52/52/6 54/54/6
f 31/31/6 42/42/6 49/49/6
f 23/23/7 50/50/7 44/44/8
f 51/51/4 56/56/9 24/24/9
f 56/56/9 55/55/10 25/25/10
f 55/55/10 54/54/11 26/26/11
f 54/54/11 53/53/12 27/27/12
f 53/53/12 52/52/13 28/28/13
f 52/52/13 50/50/7 23/23/7
f 9/9/1 14/14/14 45/45/14
f 14/14/14 13/13/15 46/46/15
f 13/13/15 12/12/16 47/47/16
f 12/12/16 11/11/17 48/48/17
f 11/11/17 10/10/18 49/49/18
f 10/10/18 8/8/8 44/44/8
f 37/37/2 42/42/19 3/3/19
f 42/42/19 41/41/20 4/4/20
f 41/41/20 40/40/21 5/5/21
f 40/40/21 39/39/22 6/6/22
f 39/39/22 38/38/23 7/7/23
f 38/38/23 36/36/24 2/2/24
f 16/16/3 21/21/25 31/31/25
f 21/21/25 20/20/26 32/32/26
f 20/20/26 19/19/27 33/33/27
f 19/19/27 18/18/28 34/34/28
f 18/18/28 17/17/29 35/35/29
f 17/17/29 15/15/30 30/30/30
f 2/2/24 36/36/24 30/30/30
